<svg width="4000" height="4000" viewBox="0 0 4000 4000" fill="none" xmlns="http://www.w3.org/2000/svg">
<path d="M1996.77 208.323C1619.7 208.323 1269.4 325.146 979.917 524.328L1105.72 3568.2C1291.2 3674.52 1496.94 3748.64 1716.07 3783.12L2233.36 223.802C2155.86 213.672 2076.95 208.323 1996.77 208.323ZM846.198 625.724C450.776 955.885 198.495 1452.39 198.495 2006.65C198.495 2112.77 207.933 2216.66 225.526 2317.74L912.729 2242.03L846.198 625.724ZM2369.11 247.13L1853.61 3799.31C1900.79 3803.01 1948.71 3805.05 1996.77 3805.05C2223.17 3805.05 2439.75 3762.85 2639.37 3686.31L3332.06 803.422C3082.08 526.297 2747.33 327.052 2369.11 247.13ZM3721.75 2515.46L3074.94 2464.86L2798.32 3616.26C3240.53 3395.22 3579.48 2997.18 3721.75 2515.46Z" fill="white"/>
</svg>
