<svg width="24" height="24" viewBox="0 0 24 24" fill="none" xmlns="http://www.w3.org/2000/svg">
<path fill-rule="evenodd" clip-rule="evenodd" d="M24 12C24 18.6274 18.6274 24 12 24C5.37258 24 0 18.6274 0 12C0 5.37258 5.37258 0 12 0C18.6274 0 24 5.37258 24 12ZM8 7C8 6.44771 8.44772 6 9 6H10C10.5523 6 11 6.44772 11 7V17C11 17.5523 10.5523 18 10 18H9C8.44771 18 8 17.5523 8 17V7ZM14 6C13.4477 6 13 6.44771 13 7V17C13 17.5523 13.4477 18 14 18H15C15.5523 18 16 17.5523 16 17V7C16 6.44772 15.5523 6 15 6H14Z" fill="black"/>
</svg>
